<?xml version="1.0" encoding="UTF-8"?>
<svg xmlns="http://www.w3.org/2000/svg" xmlns:xlink="http://www.w3.org/1999/xlink" width="792pt" height="360pt" viewBox="0 0 792 360" version="1.1">
<g id="surface234">
<rect x="0" y="0" width="792" height="360" style="fill:rgb(100%,100%,100%);fill-opacity:1;stroke:none;"/>
<rect x="0" y="0" width="792" height="360" style="fill:rgb(100%,100%,100%);fill-opacity:1;stroke:none;"/>
<path style="fill:none;stroke-width:0.48499;stroke-linecap:round;stroke-linejoin:round;stroke:rgb(100%,100%,100%);stroke-opacity:1;stroke-miterlimit:10;" d="M 0 360 L 792 360 L 792 0 L 0 0 Z M 0 360 "/>
<path style=" stroke:none;fill-rule:nonzero;fill:rgb(0%,0%,1.568627%);fill-opacity:1;" d="M 15.097656 337.917969 L 68.320313 337.917969 L 68.320313 152.109375 L 15.097656 152.109375 Z M 15.097656 337.917969 "/>
<path style=" stroke:none;fill-rule:nonzero;fill:rgb(11.764706%,4.705882%,26.666667%);fill-opacity:1;" d="M 74.230469 337.917969 L 127.453125 337.917969 L 127.453125 148.070313 L 74.230469 148.070313 Z M 74.230469 337.917969 "/>
<path style=" stroke:none;fill-rule:nonzero;fill:rgb(31.372549%,5.490196%,42.352941%);fill-opacity:1;" d="M 133.367188 337.917969 L 186.589844 337.917969 L 186.589844 128.546875 L 133.367188 128.546875 Z M 133.367188 337.917969 "/>
<path style=" stroke:none;fill-rule:nonzero;fill:rgb(49.803922%,11.764706%,42.352941%);fill-opacity:1;" d="M 192.503906 337.917969 L 245.726563 337.917969 L 245.726563 20.835938 L 192.503906 20.835938 Z M 192.503906 337.917969 "/>
<path style=" stroke:none;fill-rule:nonzero;fill:rgb(68.235294%,18.823529%,36.078431%);fill-opacity:1;" d="M 251.636719 337.917969 L 304.859375 337.917969 L 304.859375 82.769531 L 251.636719 82.769531 Z M 251.636719 337.917969 "/>
<path style=" stroke:none;fill-rule:nonzero;fill:rgb(84.705882%,29.803922%,24.313725%);fill-opacity:1;" d="M 310.773438 337.917969 L 363.996094 337.917969 L 363.996094 174.328125 L 310.773438 174.328125 Z M 310.773438 337.917969 "/>
<path style=" stroke:none;fill-rule:nonzero;fill:rgb(95.294118%,46.666667%,10.196078%);fill-opacity:1;" d="M 369.90625 337.917969 L 423.128906 337.917969 L 423.128906 126.527344 L 369.90625 126.527344 Z M 369.90625 337.917969 "/>
<path style=" stroke:none;fill-rule:nonzero;fill:rgb(0%,0%,1.568627%);fill-opacity:1;" d="M 612.621094 179.378906 L 612.621094 39.859375 L 607.792969 39.945313 L 602.964844 40.195313 L 598.152344 40.613281 L 593.355469 41.195313 L 588.582031 41.945313 L 583.839844 42.863281 L 579.128906 43.941406 L 574.460938 45.179688 L 569.835938 46.582031 L 565.261719 48.144531 L 560.746094 49.863281 L 556.292969 51.738281 L 551.910156 53.765625 L 547.59375 55.941406 L 543.359375 58.265625 L 539.207031 60.738281 L 535.144531 63.351563 L 531.171875 66.105469 L 527.300781 68.992188 L 523.527344 72.011719 L 519.863281 75.160156 L 516.3125 78.4375 L 529.59375 92.359375 L 532.917969 95.839844 L 546.199219 109.761719 L 549.523438 113.242188 L 552.84375 116.722656 L 556.164063 120.207031 L 562.804688 127.167969 L 566.128906 130.648438 L 579.410156 144.570313 L 582.734375 148.050781 L 596.015625 161.972656 L 599.339844 165.453125 L 605.980469 172.414063 L 609.300781 175.898438 Z M 612.621094 179.378906 "/>
<path style=" stroke:none;fill-rule:nonzero;fill:rgb(11.764706%,4.705882%,26.666667%);fill-opacity:1;" d="M 612.621094 179.378906 L 609.300781 175.898438 L 605.980469 172.414063 L 599.339844 165.453125 L 596.015625 161.972656 L 582.734375 148.050781 L 579.410156 144.570313 L 566.128906 130.648438 L 562.804688 127.167969 L 556.164063 120.207031 L 552.84375 116.722656 L 549.523438 113.242188 L 546.199219 109.761719 L 532.917969 95.839844 L 529.59375 92.359375 L 516.3125 78.4375 L 512.949219 81.753906 L 509.703125 85.183594 L 506.574219 88.71875 L 503.566406 92.359375 L 500.6875 96.101563 L 497.929688 99.9375 L 495.308594 103.863281 L 492.820313 107.875 L 490.46875 111.972656 L 488.257813 116.144531 L 486.191406 120.390625 L 484.265625 124.703125 L 482.488281 129.078125 L 480.863281 133.507813 L 479.382813 137.996094 L 478.058594 142.527344 L 476.890625 147.101563 L 475.875 151.714844 L 475.019531 156.355469 L 474.316406 161.027344 L 473.777344 165.71875 L 473.394531 170.425781 L 473.171875 175.140625 L 477.980469 175.289063 L 487.597656 175.578125 L 492.40625 175.726563 L 497.214844 175.871094 L 502.023438 176.019531 L 511.640625 176.308594 L 516.449219 176.457031 L 521.257813 176.601563 L 526.066406 176.75 L 535.683594 177.039063 L 540.492188 177.1875 L 550.109375 177.476563 L 554.917969 177.625 L 559.726563 177.769531 L 564.535156 177.917969 L 574.152344 178.207031 L 578.960938 178.355469 L 583.769531 178.5 L 588.578125 178.648438 L 598.195313 178.9375 L 603.003906 179.085938 L 607.8125 179.230469 Z M 612.621094 179.378906 "/>
<path style=" stroke:none;fill-rule:nonzero;fill:rgb(31.372549%,5.490196%,42.352941%);fill-opacity:1;" d="M 612.621094 179.378906 L 607.8125 179.230469 L 603.003906 179.085938 L 598.195313 178.9375 L 588.578125 178.648438 L 583.769531 178.5 L 578.960938 178.355469 L 574.152344 178.207031 L 564.535156 177.917969 L 559.726563 177.769531 L 554.917969 177.625 L 550.109375 177.476563 L 540.492188 177.1875 L 535.683594 177.039063 L 526.066406 176.75 L 521.257813 176.601563 L 516.449219 176.457031 L 511.640625 176.308594 L 502.023438 176.019531 L 497.214844 175.871094 L 492.40625 175.726563 L 487.597656 175.578125 L 477.980469 175.289063 L 473.171875 175.140625 L 473.105469 179.933594 L 473.207031 184.722656 L 473.472656 189.503906 L 473.902344 194.277344 L 474.496094 199.03125 L 475.253906 203.761719 L 476.171875 208.464844 L 477.25 213.132813 L 478.488281 217.761719 L 479.886719 222.34375 L 481.441406 226.875 L 483.148438 231.351563 L 485.007813 235.765625 L 487.019531 240.117188 L 489.179688 244.390625 L 491.484375 248.59375 L 493.933594 252.710938 L 496.519531 256.742188 L 499.246094 260.683594 L 502.105469 264.527344 L 505.09375 268.273438 L 508.210938 271.914063 L 511.449219 275.441406 L 514.804688 278.859375 L 518.28125 282.160156 L 521.53125 278.617188 L 524.785156 275.070313 L 531.292969 267.984375 L 534.546875 264.4375 L 537.800781 260.894531 L 541.050781 257.351563 L 544.304688 253.804688 L 550.8125 246.71875 L 554.066406 243.171875 L 557.316406 239.628906 L 560.570313 236.085938 L 563.824219 232.539063 L 573.585938 221.910156 L 576.835938 218.363281 L 583.34375 211.277344 L 586.597656 207.730469 L 589.851563 204.1875 L 593.101563 200.644531 L 596.355469 197.097656 L 602.863281 190.011719 L 606.117188 186.464844 L 609.371094 182.921875 Z M 612.621094 179.378906 "/>
<path style=" stroke:none;fill-rule:nonzero;fill:rgb(49.803922%,11.764706%,42.352941%);fill-opacity:1;" d="M 612.621094 179.378906 L 609.371094 182.921875 L 606.117188 186.464844 L 602.863281 190.011719 L 596.355469 197.097656 L 593.101563 200.644531 L 589.851563 204.1875 L 586.597656 207.730469 L 583.34375 211.277344 L 576.835938 218.363281 L 573.585938 221.910156 L 563.824219 232.539063 L 560.570313 236.085938 L 557.316406 239.628906 L 554.066406 243.171875 L 550.8125 246.71875 L 544.304688 253.804688 L 541.050781 257.351563 L 537.800781 260.894531 L 534.546875 264.4375 L 531.292969 267.984375 L 524.785156 275.070313 L 521.53125 278.617188 L 518.28125 282.160156 L 521.851563 285.328125 L 525.527344 288.371094 L 529.308594 291.285156 L 533.1875 294.070313 L 537.15625 296.722656 L 541.214844 299.234375 L 545.355469 301.609375 L 549.578125 303.835938 L 553.871094 305.921875 L 558.234375 307.855469 L 562.664063 309.640625 L 567.148438 311.273438 L 571.6875 312.753906 L 576.273438 314.078125 L 580.902344 315.242188 L 585.570313 316.246094 L 590.269531 317.089844 L 594.992188 317.777344 L 599.738281 318.296875 L 604.5 318.65625 L 609.269531 318.855469 L 614.042969 318.886719 L 618.8125 318.757813 L 623.578125 318.464844 L 628.328125 318.007813 L 633.0625 317.386719 L 637.773438 316.609375 L 642.453125 315.667969 L 647.097656 314.566406 L 651.703125 313.308594 L 656.261719 311.894531 L 660.769531 310.324219 L 665.222656 308.597656 L 669.609375 306.722656 L 673.933594 304.699219 L 678.1875 302.53125 L 682.359375 300.214844 L 686.453125 297.757813 L 683.90625 293.675781 L 681.363281 289.59375 L 673.722656 277.347656 L 671.179688 273.265625 L 663.539063 261.019531 L 660.996094 256.9375 L 653.355469 244.691406 L 650.8125 240.609375 L 643.171875 228.363281 L 640.628906 224.28125 L 632.988281 212.035156 L 630.445313 207.953125 L 622.804688 195.707031 L 620.261719 191.625 Z M 612.621094 179.378906 "/>
<path style=" stroke:none;fill-rule:nonzero;fill:rgb(68.235294%,18.823529%,36.078431%);fill-opacity:1;" d="M 612.621094 179.378906 L 620.261719 191.625 L 622.804688 195.707031 L 630.445313 207.953125 L 632.988281 212.035156 L 640.628906 224.28125 L 643.171875 228.363281 L 650.8125 240.609375 L 653.355469 244.691406 L 660.996094 256.9375 L 663.539063 261.019531 L 671.179688 273.265625 L 673.722656 277.347656 L 681.363281 289.59375 L 683.90625 293.675781 L 686.453125 297.757813 L 690.535156 295.113281 L 694.523438 292.324219 L 698.414063 289.398438 L 702.199219 286.339844 L 705.871094 283.152344 L 709.433594 279.839844 L 712.878906 276.402344 L 716.199219 272.847656 L 719.398438 269.179688 L 722.464844 265.402344 L 725.394531 261.519531 L 728.191406 257.535156 L 730.847656 253.457031 L 733.359375 249.292969 L 735.722656 245.039063 L 737.9375 240.707031 L 740 236.300781 L 741.90625 231.824219 L 743.65625 227.285156 L 745.246094 222.6875 L 746.675781 218.035156 L 747.941406 213.335938 L 749.046875 208.597656 L 749.980469 203.824219 L 750.75 199.019531 L 751.351563 194.191406 L 751.78125 189.34375 L 752.046875 184.484375 L 752.140625 179.621094 L 752.0625 174.757813 L 747.253906 174.914063 L 732.828125 175.394531 L 728.023438 175.554688 L 723.214844 175.710938 L 703.980469 176.351563 L 699.171875 176.507813 L 679.9375 177.148438 L 675.128906 177.304688 L 670.320313 177.464844 L 665.515625 177.625 L 660.707031 177.785156 L 655.898438 177.941406 L 636.664063 178.582031 L 631.855469 178.738281 Z M 612.621094 179.378906 "/>
<path style=" stroke:none;fill-rule:nonzero;fill:rgb(84.705882%,29.803922%,24.313725%);fill-opacity:1;" d="M 612.621094 179.378906 L 631.855469 178.738281 L 636.664063 178.582031 L 655.898438 177.941406 L 660.707031 177.785156 L 665.515625 177.625 L 670.320313 177.464844 L 675.128906 177.304688 L 679.9375 177.148438 L 699.171875 176.507813 L 703.980469 176.351563 L 723.214844 175.710938 L 728.023438 175.554688 L 732.828125 175.394531 L 747.253906 174.914063 L 752.0625 174.757813 L 751.8125 169.835938 L 751.390625 164.929688 L 750.792969 160.039063 L 750.023438 155.175781 L 749.085938 150.339844 L 747.972656 145.539063 L 746.695313 140.785156 L 745.25 136.074219 L 743.636719 131.421875 L 741.863281 126.824219 L 739.929688 122.296875 L 737.832031 117.839844 L 735.582031 113.457031 L 733.179688 109.15625 L 730.625 104.945313 L 727.925781 100.828125 L 725.082031 96.804688 L 722.09375 92.886719 L 718.972656 89.078125 L 715.308594 92.191406 L 696.96875 107.757813 L 693.304688 110.875 L 674.964844 126.441406 L 671.300781 129.554688 L 667.632813 132.667969 L 663.964844 135.785156 L 656.628906 142.011719 L 652.964844 145.125 L 641.960938 154.464844 L 638.292969 157.582031 L 634.625 160.695313 L 630.960938 163.808594 L 616.289063 176.261719 Z M 612.621094 179.378906 "/>
<path style=" stroke:none;fill-rule:nonzero;fill:rgb(95.294118%,46.666667%,10.196078%);fill-opacity:1;" d="M 612.621094 179.378906 L 616.289063 176.261719 L 630.960938 163.808594 L 634.625 160.695313 L 638.292969 157.582031 L 641.960938 154.464844 L 652.964844 145.125 L 656.628906 142.011719 L 663.964844 135.785156 L 667.632813 132.667969 L 671.300781 129.554688 L 674.964844 126.441406 L 693.304688 110.875 L 696.96875 107.757813 L 715.308594 92.191406 L 718.972656 89.078125 L 715.78125 85.445313 L 712.460938 81.925781 L 709.023438 78.523438 L 705.46875 75.242188 L 701.804688 72.085938 L 698.03125 69.058594 L 694.152344 66.164063 L 690.179688 63.40625 L 686.113281 60.785156 L 681.957031 58.308594 L 677.71875 55.976563 L 673.402344 53.796875 L 669.011719 51.765625 L 664.554688 49.886719 L 660.035156 48.164063 L 655.457031 46.597656 L 650.828125 45.195313 L 646.152344 43.949219 L 641.4375 42.867188 L 636.6875 41.953125 L 631.910156 41.199219 L 627.109375 40.613281 L 622.289063 40.195313 L 617.460938 39.945313 L 612.621094 39.859375 Z M 612.621094 179.378906 "/>
</g>
</svg>
