<?xml version="1.0" encoding="UTF-8"?>
<svg xmlns="http://www.w3.org/2000/svg" xmlns:xlink="http://www.w3.org/1999/xlink" width="792pt" height="360pt" viewBox="0 0 792 360" version="1.1">
<g id="surface249">
<rect x="0" y="0" width="792" height="360" style="fill:rgb(100%,100%,100%);fill-opacity:1;stroke:none;"/>
<rect x="0" y="0" width="792" height="360" style="fill:rgb(100%,98.039216%,98.039216%);fill-opacity:1;stroke:none;"/>
<path style=" stroke:none;fill-rule:nonzero;fill:rgb(0%,0%,1.568627%);fill-opacity:1;" d="M 17.828125 331.058594 L 42.597656 331.058594 L 42.597656 152.417969 L 17.828125 152.417969 Z M 17.828125 331.058594 "/>
<path style=" stroke:none;fill-rule:nonzero;fill:rgb(5.098039%,3.137255%,16.470588%);fill-opacity:1;" d="M 45.347656 331.058594 L 70.117188 331.058594 L 70.117188 243.679688 L 45.347656 243.679688 Z M 45.347656 331.058594 "/>
<path style=" stroke:none;fill-rule:nonzero;fill:rgb(15.686275%,4.313725%,32.941176%);fill-opacity:1;" d="M 72.867188 331.058594 L 97.636719 331.058594 L 97.636719 197.722656 L 72.867188 197.722656 Z M 72.867188 331.058594 "/>
<path style=" stroke:none;fill-rule:nonzero;fill:rgb(28.235294%,4.313725%,41.568627%);fill-opacity:1;" d="M 100.386719 331.058594 L 125.15625 331.058594 L 125.15625 148.53125 L 100.386719 148.53125 Z M 100.386719 331.058594 "/>
<path style=" stroke:none;fill-rule:nonzero;fill:rgb(39.607843%,8.235294%,43.137255%);fill-opacity:1;" d="M 127.90625 331.058594 L 152.675781 331.058594 L 152.675781 129.761719 L 127.90625 129.761719 Z M 127.90625 331.058594 "/>
<path style=" stroke:none;fill-rule:nonzero;fill:rgb(50.980392%,12.54902%,42.352941%);fill-opacity:1;" d="M 155.425781 331.058594 L 180.195313 331.058594 L 180.195313 189.308594 L 155.425781 189.308594 Z M 155.425781 331.058594 "/>
<path style=" stroke:none;fill-rule:nonzero;fill:rgb(62.352941%,16.470588%,38.823529%);fill-opacity:1;" d="M 182.945313 331.058594 L 207.714844 331.058594 L 207.714844 26.203125 L 182.945313 26.203125 Z M 182.945313 331.058594 "/>
<path style=" stroke:none;fill-rule:nonzero;fill:rgb(73.333333%,21.568627%,32.941176%);fill-opacity:1;" d="M 210.464844 331.058594 L 235.234375 331.058594 L 235.234375 251.445313 L 210.464844 251.445313 Z M 210.464844 331.058594 "/>
<path style=" stroke:none;fill-rule:nonzero;fill:rgb(83.137255%,28.235294%,25.882353%);fill-opacity:1;" d="M 237.984375 331.058594 L 262.753906 331.058594 L 262.753906 241.089844 L 237.984375 241.089844 Z M 237.984375 331.058594 "/>
<path style=" stroke:none;fill-rule:nonzero;fill:rgb(90.980392%,37.647059%,17.647059%);fill-opacity:1;" d="M 265.503906 331.058594 L 290.273438 331.058594 L 290.273438 204.84375 L 265.503906 204.84375 Z M 265.503906 331.058594 "/>
<path style=" stroke:none;fill-rule:nonzero;fill:rgb(96.078431%,49.019608%,8.235294%);fill-opacity:1;" d="M 293.023438 331.058594 L 317.792969 331.058594 L 317.792969 219.082031 L 293.023438 219.082031 Z M 293.023438 331.058594 "/>
<path style=" stroke:none;fill-rule:nonzero;fill:rgb(98.431373%,61.960784%,2.745098%);fill-opacity:1;" d="M 320.542969 331.058594 L 345.3125 331.058594 L 345.3125 226.203125 L 320.542969 226.203125 Z M 320.542969 331.058594 "/>
<path style=" stroke:none;fill-rule:nonzero;fill:rgb(98.039216%,75.686275%,15.294118%);fill-opacity:1;" d="M 348.066406 331.058594 L 372.835938 331.058594 L 372.835938 85.75 L 348.066406 85.75 Z M 348.066406 331.058594 "/>
<path style=" stroke:none;fill-rule:nonzero;fill:rgb(95.294118%,89.803922%,36.078431%);fill-opacity:1;" d="M 375.585938 331.058594 L 400.355469 331.058594 L 400.355469 173.777344 L 375.585938 173.777344 Z M 375.585938 331.058594 "/>
<path style=" stroke:none;fill-rule:nonzero;fill:rgb(98.823529%,100%,64.313725%);fill-opacity:1;" d="M 403.105469 331.058594 L 427.875 331.058594 L 427.875 127.820313 L 403.105469 127.820313 Z M 403.105469 331.058594 "/>
<path style=" stroke:none;fill-rule:nonzero;fill:rgb(0%,0%,1.568627%);fill-opacity:1;" d="M 613.371094 178.628906 L 613.371094 44.492188 L 608.789063 44.570313 L 604.21875 44.804688 L 599.65625 45.195313 L 595.109375 45.742188 L 590.582031 46.441406 L 586.082031 47.296875 L 581.617188 48.304688 L 577.1875 49.464844 L 572.796875 50.777344 L 568.457031 52.234375 L 564.167969 53.84375 L 559.9375 55.59375 L 555.769531 57.492188 L 551.667969 59.527344 L 553.792969 63.632813 L 555.921875 67.742188 L 558.050781 71.847656 L 560.179688 75.957031 L 562.304688 80.0625 L 564.433594 84.167969 L 566.5625 88.277344 L 568.6875 92.382813 L 570.816406 96.488281 L 572.945313 100.597656 L 575.070313 104.703125 L 577.199219 108.8125 L 579.328125 112.917969 L 581.453125 117.023438 L 583.582031 121.132813 L 585.710938 125.238281 L 587.835938 129.347656 L 592.09375 137.558594 L 594.222656 141.667969 L 596.347656 145.773438 L 598.476563 149.882813 L 600.605469 153.988281 L 602.730469 158.09375 L 604.859375 162.203125 L 606.988281 166.308594 L 609.113281 170.417969 Z M 613.371094 178.628906 "/>
<path style=" stroke:none;fill-rule:nonzero;fill:rgb(5.098039%,3.137255%,16.470588%);fill-opacity:1;" d="M 613.371094 178.628906 L 609.113281 170.417969 L 606.988281 166.308594 L 604.859375 162.203125 L 602.730469 158.09375 L 600.605469 153.988281 L 598.476563 149.882813 L 596.347656 145.773438 L 594.222656 141.667969 L 592.09375 137.558594 L 587.835938 129.347656 L 585.710938 125.238281 L 583.582031 121.132813 L 581.453125 117.023438 L 579.328125 112.917969 L 577.199219 108.8125 L 575.070313 104.703125 L 572.945313 100.597656 L 570.816406 96.488281 L 568.6875 92.382813 L 566.5625 88.277344 L 564.433594 84.167969 L 562.304688 80.0625 L 560.179688 75.957031 L 558.050781 71.847656 L 555.921875 67.742188 L 553.792969 63.632813 L 551.667969 59.527344 L 547.074219 62.019531 L 542.582031 64.691406 L 538.195313 67.535156 L 533.925781 70.550781 L 529.777344 73.726563 L 525.753906 77.0625 L 528.773438 80.566406 L 531.796875 84.066406 L 534.816406 87.570313 L 537.835938 91.070313 L 540.859375 94.574219 L 543.878906 98.078125 L 546.902344 101.578125 L 549.921875 105.082031 L 552.945313 108.582031 L 555.964844 112.085938 L 558.988281 115.589844 L 562.007813 119.089844 L 565.027344 122.59375 L 568.050781 126.09375 L 571.070313 129.597656 L 574.09375 133.101563 L 577.113281 136.601563 L 580.136719 140.105469 L 583.15625 143.605469 L 586.179688 147.109375 L 589.199219 150.613281 L 592.222656 154.113281 L 595.242188 157.617188 L 598.261719 161.117188 L 601.285156 164.621094 L 604.304688 168.125 L 607.328125 171.625 L 610.347656 175.128906 Z M 613.371094 178.628906 "/>
<path style=" stroke:none;fill-rule:nonzero;fill:rgb(15.686275%,4.313725%,32.941176%);fill-opacity:1;" d="M 613.371094 178.628906 L 610.347656 175.128906 L 607.328125 171.625 L 604.304688 168.125 L 601.285156 164.621094 L 598.261719 161.117188 L 595.242188 157.617188 L 592.222656 154.113281 L 589.199219 150.613281 L 586.179688 147.109375 L 583.15625 143.605469 L 580.136719 140.105469 L 577.113281 136.601563 L 574.09375 133.101563 L 571.070313 129.597656 L 568.050781 126.09375 L 565.027344 122.59375 L 562.007813 119.089844 L 558.988281 115.589844 L 555.964844 112.085938 L 552.945313 108.582031 L 549.921875 105.082031 L 546.902344 101.578125 L 543.878906 98.078125 L 540.859375 94.574219 L 537.835938 91.070313 L 534.816406 87.570313 L 531.796875 84.066406 L 528.773438 80.566406 L 525.753906 77.0625 L 522.183594 80.253906 L 518.734375 83.566406 L 515.402344 87.003906 L 512.199219 90.554688 L 509.121094 94.222656 L 506.175781 97.992188 L 503.367188 101.867188 L 500.699219 105.839844 L 498.175781 109.90625 L 495.796875 114.058594 L 520.125 127.417969 L 524.175781 129.644531 L 552.558594 145.230469 L 556.609375 147.457031 L 584.992188 163.042969 L 589.042969 165.269531 Z M 613.371094 178.628906 "/>
<path style=" stroke:none;fill-rule:nonzero;fill:rgb(28.235294%,4.313725%,41.568627%);fill-opacity:1;" d="M 613.371094 178.628906 L 589.042969 165.269531 L 584.992188 163.042969 L 556.609375 147.457031 L 552.558594 145.230469 L 524.175781 129.644531 L 520.125 127.417969 L 495.796875 114.058594 L 493.617188 118.199219 L 491.582031 122.410156 L 489.695313 126.691406 L 487.960938 131.039063 L 486.375 135.441406 L 484.945313 139.898438 L 483.675781 144.398438 L 482.558594 148.945313 L 481.601563 153.523438 L 480.808594 158.136719 L 480.171875 162.769531 L 479.703125 167.425781 L 479.390625 172.09375 L 479.246094 176.773438 L 488.496094 176.898438 L 493.121094 176.964844 L 497.746094 177.027344 L 502.371094 177.09375 L 511.621094 177.21875 L 516.246094 177.285156 L 520.871094 177.347656 L 525.496094 177.414063 L 534.746094 177.539063 L 539.371094 177.605469 L 543.996094 177.667969 L 548.621094 177.734375 L 557.871094 177.859375 L 562.496094 177.925781 L 567.121094 177.988281 L 571.746094 178.054688 L 580.996094 178.179688 L 585.621094 178.246094 L 590.246094 178.308594 L 594.871094 178.375 L 599.496094 178.4375 L 604.121094 178.503906 Z M 613.371094 178.628906 "/>
<path style=" stroke:none;fill-rule:nonzero;fill:rgb(39.607843%,8.235294%,43.137255%);fill-opacity:1;" d="M 613.371094 178.628906 L 604.121094 178.503906 L 599.496094 178.4375 L 594.871094 178.375 L 590.246094 178.308594 L 585.621094 178.246094 L 580.996094 178.179688 L 571.746094 178.054688 L 567.121094 177.988281 L 562.496094 177.925781 L 557.871094 177.859375 L 548.621094 177.734375 L 543.996094 177.667969 L 539.371094 177.605469 L 534.746094 177.539063 L 525.496094 177.414063 L 520.871094 177.347656 L 516.246094 177.285156 L 511.621094 177.21875 L 502.371094 177.09375 L 497.746094 177.027344 L 493.121094 176.964844 L 488.496094 176.898438 L 479.246094 176.773438 L 479.265625 181.589844 L 479.457031 186.398438 L 479.824219 191.203125 L 480.359375 195.988281 L 481.070313 200.753906 L 481.949219 205.488281 L 483 210.1875 L 484.214844 214.847656 L 485.597656 219.460938 L 487.148438 224.023438 L 488.859375 228.523438 L 490.730469 232.960938 L 492.757813 237.328125 L 494.945313 241.621094 L 497.28125 245.832031 L 505.289063 241.199219 L 509.289063 238.878906 L 521.300781 231.929688 L 525.300781 229.613281 L 529.304688 227.292969 L 541.316406 220.34375 L 545.316406 218.023438 L 557.328125 211.074219 L 561.332031 208.753906 L 565.332031 206.4375 L 573.339844 201.804688 L 577.34375 199.484375 L 581.34375 197.167969 L 589.351563 192.535156 L 593.355469 190.214844 L 597.359375 187.898438 L 601.359375 185.582031 L 609.367188 180.949219 Z M 613.371094 178.628906 "/>
<path style=" stroke:none;fill-rule:nonzero;fill:rgb(50.980392%,12.54902%,42.352941%);fill-opacity:1;" d="M 613.371094 178.628906 L 609.367188 180.949219 L 601.359375 185.582031 L 597.359375 187.898438 L 593.355469 190.214844 L 589.351563 192.535156 L 581.34375 197.167969 L 577.34375 199.484375 L 573.339844 201.804688 L 565.332031 206.4375 L 561.332031 208.753906 L 557.328125 211.074219 L 545.316406 218.023438 L 541.316406 220.34375 L 529.304688 227.292969 L 525.300781 229.613281 L 521.300781 231.929688 L 509.289063 238.878906 L 505.289063 241.199219 L 497.28125 245.832031 L 499.667969 249.792969 L 502.1875 253.671875 L 504.839844 257.460938 L 507.621094 261.15625 L 510.53125 264.75 L 513.558594 268.246094 L 516.710938 271.632813 L 519.972656 274.910156 L 523.347656 278.070313 L 526.828125 281.117188 L 530.414063 284.039063 L 533.273438 280.402344 L 536.132813 276.769531 L 538.996094 273.132813 L 541.855469 269.5 L 544.714844 265.863281 L 547.578125 262.230469 L 550.4375 258.59375 L 553.296875 254.960938 L 556.160156 251.324219 L 559.019531 247.691406 L 561.878906 244.054688 L 564.738281 240.421875 L 567.601563 236.785156 L 570.460938 233.152344 L 573.320313 229.515625 L 576.183594 225.882813 L 579.042969 222.246094 L 581.902344 218.613281 L 584.765625 214.976563 L 587.625 211.34375 L 590.484375 207.707031 L 593.347656 204.074219 L 596.207031 200.4375 L 599.066406 196.804688 L 601.925781 193.167969 L 604.789063 189.535156 L 607.648438 185.898438 L 610.507813 182.265625 Z M 613.371094 178.628906 "/>
<path style=" stroke:none;fill-rule:nonzero;fill:rgb(62.352941%,16.470588%,38.823529%);fill-opacity:1;" d="M 613.371094 178.628906 L 610.507813 182.265625 L 607.648438 185.898438 L 604.789063 189.535156 L 601.925781 193.167969 L 599.066406 196.804688 L 596.207031 200.4375 L 593.347656 204.074219 L 590.484375 207.707031 L 587.625 211.34375 L 584.765625 214.976563 L 581.902344 218.613281 L 579.042969 222.246094 L 576.183594 225.882813 L 573.320313 229.515625 L 570.460938 233.152344 L 567.601563 236.785156 L 564.738281 240.421875 L 561.878906 244.054688 L 559.019531 247.691406 L 556.160156 251.324219 L 553.296875 254.960938 L 550.4375 258.59375 L 547.578125 262.230469 L 544.714844 265.863281 L 541.855469 269.5 L 538.996094 273.132813 L 536.132813 276.769531 L 533.273438 280.402344 L 530.414063 284.039063 L 534.042969 286.796875 L 537.765625 289.429688 L 541.574219 291.933594 L 545.464844 294.308594 L 549.433594 296.550781 L 553.480469 298.65625 L 557.59375 300.621094 L 561.769531 302.445313 L 566.007813 304.128906 L 570.296875 305.664063 L 574.640625 307.054688 L 579.027344 308.296875 L 583.453125 309.386719 L 587.914063 310.328125 L 592.402344 311.117188 L 596.917969 311.753906 L 601.449219 312.238281 L 605.996094 312.5625 L 610.554688 312.738281 L 615.113281 312.753906 L 619.667969 312.621094 L 624.21875 312.328125 L 628.753906 311.882813 L 633.273438 311.28125 L 632.589844 306.707031 L 630.527344 292.984375 L 629.84375 288.410156 L 628.46875 279.261719 L 627.785156 274.6875 L 625.722656 260.964844 L 625.039063 256.390625 L 623.664063 247.242188 L 622.980469 242.667969 L 620.917969 228.945313 L 620.234375 224.371094 L 618.859375 215.222656 L 618.175781 210.648438 L 616.800781 201.5 L 616.117188 196.925781 L 614.054688 183.203125 Z M 613.371094 178.628906 "/>
<path style=" stroke:none;fill-rule:nonzero;fill:rgb(73.333333%,21.568627%,32.941176%);fill-opacity:1;" d="M 613.371094 178.628906 L 614.054688 183.203125 L 616.117188 196.925781 L 616.800781 201.5 L 618.175781 210.648438 L 618.859375 215.222656 L 620.234375 224.371094 L 620.917969 228.945313 L 622.980469 242.667969 L 623.664063 247.242188 L 625.039063 256.390625 L 625.722656 260.964844 L 627.785156 274.6875 L 628.46875 279.261719 L 629.84375 288.410156 L 630.527344 292.984375 L 632.589844 306.707031 L 633.273438 311.28125 L 637.96875 310.492188 L 642.636719 309.535156 L 647.261719 308.414063 L 651.847656 307.128906 L 656.386719 305.683594 L 660.867188 304.074219 L 657.59375 295.425781 L 655.953125 291.097656 L 654.316406 286.773438 L 652.679688 282.445313 L 651.042969 278.121094 L 649.402344 273.796875 L 647.765625 269.46875 L 646.128906 265.144531 L 644.488281 260.820313 L 642.851563 256.492188 L 641.214844 252.167969 L 639.574219 247.839844 L 636.300781 239.191406 L 634.664063 234.863281 L 633.023438 230.539063 L 631.386719 226.214844 L 629.75 221.886719 L 628.109375 217.5625 L 626.472656 213.234375 L 624.835938 208.910156 L 623.195313 204.585938 L 621.558594 200.257813 L 619.921875 195.933594 L 618.285156 191.605469 L 616.644531 187.28125 L 615.007813 182.957031 Z M 613.371094 178.628906 "/>
<path style=" stroke:none;fill-rule:nonzero;fill:rgb(83.137255%,28.235294%,25.882353%);fill-opacity:1;" d="M 613.371094 178.628906 L 615.007813 182.957031 L 616.644531 187.28125 L 618.285156 191.605469 L 619.921875 195.933594 L 621.558594 200.257813 L 623.195313 204.585938 L 624.835938 208.910156 L 626.472656 213.234375 L 628.109375 217.5625 L 629.75 221.886719 L 631.386719 226.214844 L 633.023438 230.539063 L 634.664063 234.863281 L 636.300781 239.191406 L 639.574219 247.839844 L 641.214844 252.167969 L 642.851563 256.492188 L 644.488281 260.820313 L 646.128906 265.144531 L 647.765625 269.46875 L 649.402344 273.796875 L 651.042969 278.121094 L 652.679688 282.445313 L 654.316406 286.773438 L 655.953125 291.097656 L 657.59375 295.425781 L 660.867188 304.074219 L 665.152344 302.367188 L 669.378906 300.515625 L 673.535156 298.515625 L 677.621094 296.378906 L 681.632813 294.097656 L 685.5625 291.683594 L 689.40625 289.132813 L 686.785156 285.324219 L 684.164063 281.511719 L 681.539063 277.703125 L 678.917969 273.890625 L 676.296875 270.082031 L 673.675781 266.269531 L 671.054688 262.460938 L 668.429688 258.648438 L 663.1875 251.03125 L 660.566406 247.21875 L 657.941406 243.410156 L 655.320313 239.597656 L 652.699219 235.789063 L 650.078125 231.976563 L 647.457031 228.167969 L 644.832031 224.355469 L 642.210938 220.546875 L 639.589844 216.734375 L 636.96875 212.925781 L 634.34375 209.113281 L 631.722656 205.304688 L 629.101563 201.492188 L 626.480469 197.683594 L 623.859375 193.871094 L 621.234375 190.0625 L 618.613281 186.25 L 615.992188 182.441406 Z M 613.371094 178.628906 "/>
<path style=" stroke:none;fill-rule:nonzero;fill:rgb(90.980392%,37.647059%,17.647059%);fill-opacity:1;" d="M 613.371094 178.628906 L 615.992188 182.441406 L 618.613281 186.25 L 621.234375 190.0625 L 623.859375 193.871094 L 626.480469 197.683594 L 629.101563 201.492188 L 631.722656 205.304688 L 634.34375 209.113281 L 636.96875 212.925781 L 639.589844 216.734375 L 642.210938 220.546875 L 644.832031 224.355469 L 647.457031 228.167969 L 650.078125 231.976563 L 652.699219 235.789063 L 655.320313 239.597656 L 657.941406 243.410156 L 660.566406 247.21875 L 663.1875 251.03125 L 668.429688 258.648438 L 671.054688 262.460938 L 673.675781 266.269531 L 676.296875 270.082031 L 678.917969 273.890625 L 681.539063 277.703125 L 684.164063 281.511719 L 686.785156 285.324219 L 689.40625 289.132813 L 693.5 286.203125 L 697.476563 283.121094 L 701.339844 279.894531 L 705.074219 276.523438 L 708.683594 273.011719 L 712.15625 269.371094 L 715.492188 265.601563 L 718.683594 261.707031 L 721.726563 257.699219 L 717.988281 254.972656 L 714.253906 252.246094 L 710.515625 249.519531 L 706.78125 246.792969 L 699.304688 241.339844 L 695.570313 238.613281 L 691.832031 235.886719 L 688.097656 233.160156 L 684.359375 230.433594 L 680.625 227.707031 L 676.886719 224.980469 L 673.152344 222.253906 L 669.414063 219.527344 L 665.679688 216.800781 L 661.941406 214.074219 L 658.207031 211.347656 L 654.46875 208.621094 L 650.734375 205.894531 L 646.996094 203.167969 L 643.261719 200.441406 L 639.523438 197.714844 L 635.789063 194.988281 L 632.050781 192.261719 L 628.316406 189.535156 L 624.578125 186.808594 L 620.84375 184.082031 L 617.105469 181.355469 Z M 613.371094 178.628906 "/>
<path style=" stroke:none;fill-rule:nonzero;fill:rgb(96.078431%,49.019608%,8.235294%);fill-opacity:1;" d="M 613.371094 178.628906 L 617.105469 181.355469 L 620.84375 184.082031 L 624.578125 186.808594 L 628.316406 189.535156 L 632.050781 192.261719 L 635.789063 194.988281 L 639.523438 197.714844 L 643.261719 200.441406 L 646.996094 203.167969 L 650.734375 205.894531 L 654.46875 208.621094 L 658.207031 211.347656 L 661.941406 214.074219 L 665.679688 216.800781 L 669.414063 219.527344 L 673.152344 222.253906 L 676.886719 224.980469 L 680.625 227.707031 L 684.359375 230.433594 L 688.097656 233.160156 L 691.832031 235.886719 L 695.570313 238.613281 L 699.304688 241.339844 L 706.78125 246.792969 L 710.515625 249.519531 L 714.253906 252.246094 L 717.988281 254.972656 L 721.726563 257.699219 L 724.609375 253.585938 L 727.339844 249.367188 L 729.90625 245.050781 L 732.3125 240.640625 L 734.550781 236.144531 L 736.617188 231.566406 L 738.515625 226.914063 L 740.234375 222.195313 L 735.859375 220.695313 L 727.109375 217.6875 L 722.738281 216.1875 L 718.363281 214.683594 L 713.988281 213.183594 L 709.613281 211.679688 L 705.238281 210.179688 L 696.488281 207.171875 L 692.113281 205.671875 L 687.738281 204.167969 L 683.363281 202.667969 L 674.613281 199.660156 L 670.242188 198.160156 L 665.867188 196.65625 L 661.492188 195.15625 L 657.117188 193.652344 L 652.742188 192.152344 L 643.992188 189.144531 L 639.617188 187.644531 L 635.242188 186.140625 L 630.867188 184.640625 L 626.492188 183.136719 L 622.121094 181.632813 L 617.746094 180.132813 Z M 613.371094 178.628906 "/>
<path style=" stroke:none;fill-rule:nonzero;fill:rgb(98.431373%,61.960784%,2.745098%);fill-opacity:1;" d="M 613.371094 178.628906 L 617.746094 180.132813 L 622.121094 181.632813 L 626.492188 183.136719 L 630.867188 184.640625 L 635.242188 186.140625 L 639.617188 187.644531 L 643.992188 189.144531 L 652.742188 192.152344 L 657.117188 193.652344 L 661.492188 195.15625 L 665.867188 196.65625 L 670.242188 198.160156 L 674.613281 199.660156 L 683.363281 202.667969 L 687.738281 204.167969 L 692.113281 205.671875 L 696.488281 207.171875 L 705.238281 210.179688 L 709.613281 211.679688 L 713.988281 213.183594 L 718.363281 214.683594 L 722.738281 216.1875 L 727.109375 217.6875 L 735.859375 220.695313 L 740.234375 222.195313 L 741.683594 217.722656 L 742.976563 213.199219 L 744.109375 208.632813 L 745.082031 204.03125 L 745.890625 199.394531 L 746.535156 194.738281 L 747.019531 190.058594 L 747.335938 185.363281 L 742.71875 185.132813 L 738.097656 184.898438 L 733.480469 184.667969 L 728.859375 184.433594 L 724.238281 184.203125 L 719.621094 183.972656 L 715 183.738281 L 710.382813 183.507813 L 705.761719 183.273438 L 701.140625 183.042969 L 696.523438 182.808594 L 691.902344 182.578125 L 687.28125 182.34375 L 682.664063 182.113281 L 678.042969 181.882813 L 673.425781 181.648438 L 668.804688 181.417969 L 664.183594 181.183594 L 659.566406 180.953125 L 654.945313 180.71875 L 650.328125 180.488281 L 645.707031 180.253906 L 641.085938 180.023438 L 636.46875 179.792969 L 631.847656 179.558594 L 627.230469 179.328125 L 622.609375 179.09375 L 617.988281 178.863281 Z M 613.371094 178.628906 "/>
<path style=" stroke:none;fill-rule:nonzero;fill:rgb(98.039216%,75.686275%,15.294118%);fill-opacity:1;" d="M 613.371094 178.628906 L 617.988281 178.863281 L 622.609375 179.09375 L 627.230469 179.328125 L 631.847656 179.558594 L 636.46875 179.792969 L 641.085938 180.023438 L 645.707031 180.253906 L 650.328125 180.488281 L 654.945313 180.71875 L 659.566406 180.953125 L 664.183594 181.183594 L 668.804688 181.417969 L 673.425781 181.648438 L 678.042969 181.882813 L 682.664063 182.113281 L 687.28125 182.34375 L 691.902344 182.578125 L 696.523438 182.808594 L 701.140625 183.042969 L 705.761719 183.273438 L 710.382813 183.507813 L 715 183.738281 L 719.621094 183.972656 L 724.238281 184.203125 L 728.859375 184.433594 L 733.480469 184.667969 L 738.097656 184.898438 L 742.71875 185.132813 L 747.335938 185.363281 L 747.492188 180.734375 L 747.484375 176.097656 L 747.316406 171.46875 L 746.988281 166.847656 L 746.5 162.238281 L 745.855469 157.648438 L 745.050781 153.085938 L 744.089844 148.554688 L 742.976563 144.054688 L 741.703125 139.601563 L 740.277344 135.191406 L 738.703125 130.835938 L 736.976563 126.535156 L 735.105469 122.296875 L 733.085938 118.125 L 730.925781 114.027344 L 728.621094 110.003906 L 726.183594 106.0625 L 723.609375 102.210938 L 719.808594 104.847656 L 716.007813 107.480469 L 712.207031 110.117188 L 708.40625 112.75 L 704.601563 115.386719 L 700.800781 118.023438 L 697 120.65625 L 693.199219 123.292969 L 689.398438 125.925781 L 685.597656 128.5625 L 681.792969 131.199219 L 677.992188 133.832031 L 674.191406 136.46875 L 670.390625 139.101563 L 662.789063 144.375 L 658.988281 147.007813 L 655.183594 149.644531 L 651.382813 152.277344 L 643.78125 157.550781 L 639.980469 160.183594 L 636.179688 162.820313 L 632.375 165.453125 L 624.773438 170.726563 L 620.972656 173.359375 L 617.171875 175.996094 Z M 613.371094 178.628906 "/>
<path style=" stroke:none;fill-rule:nonzero;fill:rgb(95.294118%,89.803922%,36.078431%);fill-opacity:1;" d="M 613.371094 178.628906 L 617.171875 175.996094 L 620.972656 173.359375 L 624.773438 170.726563 L 632.375 165.453125 L 636.179688 162.820313 L 639.980469 160.183594 L 643.78125 157.550781 L 651.382813 152.277344 L 655.183594 149.644531 L 658.988281 147.007813 L 662.789063 144.375 L 670.390625 139.101563 L 674.191406 136.46875 L 677.992188 133.832031 L 681.792969 131.199219 L 685.597656 128.5625 L 689.398438 125.925781 L 693.199219 123.292969 L 697 120.65625 L 700.800781 118.023438 L 704.601563 115.386719 L 708.40625 112.75 L 712.207031 110.117188 L 716.007813 107.480469 L 719.808594 104.847656 L 723.609375 102.210938 L 720.863281 98.394531 L 717.984375 94.671875 L 714.976563 91.058594 L 711.84375 87.546875 L 708.589844 84.152344 L 705.214844 80.871094 L 701.734375 77.710938 L 698.140625 74.675781 L 694.441406 71.765625 L 690.644531 68.988281 L 686.753906 66.347656 L 682.773438 63.84375 L 677.984375 71.757813 L 675.59375 75.71875 L 670.804688 83.632813 L 668.414063 87.59375 L 663.625 95.507813 L 661.234375 99.464844 L 658.839844 103.425781 L 656.445313 107.382813 L 654.054688 111.339844 L 651.660156 115.300781 L 649.265625 119.257813 L 646.875 123.214844 L 644.480469 127.171875 L 642.085938 131.132813 L 639.695313 135.089844 L 637.300781 139.046875 L 634.910156 143.007813 L 630.121094 150.921875 L 627.730469 154.882813 L 622.941406 162.796875 L 620.550781 166.753906 L 618.15625 170.714844 L 615.761719 174.671875 Z M 613.371094 178.628906 "/>
<path style=" stroke:none;fill-rule:nonzero;fill:rgb(98.823529%,100%,64.313725%);fill-opacity:1;" d="M 613.371094 178.628906 L 615.761719 174.671875 L 618.15625 170.714844 L 620.550781 166.753906 L 622.941406 162.796875 L 627.730469 154.882813 L 630.121094 150.921875 L 634.910156 143.007813 L 637.300781 139.046875 L 639.695313 135.089844 L 642.085938 131.132813 L 644.480469 127.171875 L 646.875 123.214844 L 649.265625 119.257813 L 651.660156 115.300781 L 654.054688 111.339844 L 656.445313 107.382813 L 658.839844 103.425781 L 661.234375 99.464844 L 663.625 95.507813 L 668.414063 87.59375 L 670.804688 83.632813 L 675.59375 75.71875 L 677.984375 71.757813 L 682.773438 63.84375 L 678.832031 61.550781 L 674.816406 59.394531 L 670.726563 57.375 L 666.574219 55.496094 L 662.359375 53.757813 L 658.085938 52.167969 L 653.765625 50.71875 L 649.394531 49.421875 L 644.984375 48.273438 L 640.535156 47.273438 L 636.054688 46.425781 L 631.550781 45.730469 L 627.023438 45.191406 L 622.480469 44.804688 L 617.929688 44.570313 L 613.371094 44.492188 Z M 613.371094 178.628906 "/>
</g>
</svg>
