<?xml version="1.0" encoding="UTF-8"?>
<svg xmlns="http://www.w3.org/2000/svg" xmlns:xlink="http://www.w3.org/1999/xlink" width="792pt" height="360pt" viewBox="0 0 792 360" version="1.1">
<g id="surface239">
<rect x="0" y="0" width="792" height="360" style="fill:rgb(100%,100%,100%);fill-opacity:1;stroke:none;"/>
<rect x="0" y="0" width="792" height="360" style="fill:rgb(100%,98.039216%,98.039216%);fill-opacity:1;stroke:none;"/>
<path style=" stroke:none;fill-rule:nonzero;fill:rgb(0%,0%,1.568627%);fill-opacity:1;" d="M 22.414063 331.058594 L 74.703125 331.058594 L 74.703125 152.417969 L 22.414063 152.417969 Z M 22.414063 331.058594 "/>
<path style=" stroke:none;fill-rule:nonzero;fill:rgb(11.764706%,4.705882%,26.666667%);fill-opacity:1;" d="M 80.511719 331.058594 L 132.800781 331.058594 L 132.800781 148.53125 L 80.511719 148.53125 Z M 80.511719 331.058594 "/>
<path style=" stroke:none;fill-rule:nonzero;fill:rgb(31.372549%,5.490196%,42.352941%);fill-opacity:1;" d="M 138.609375 331.058594 L 190.898438 331.058594 L 190.898438 129.761719 L 138.609375 129.761719 Z M 138.609375 331.058594 "/>
<path style=" stroke:none;fill-rule:nonzero;fill:rgb(49.803922%,11.764706%,42.352941%);fill-opacity:1;" d="M 196.707031 331.058594 L 248.996094 331.058594 L 248.996094 26.203125 L 196.707031 26.203125 Z M 196.707031 331.058594 "/>
<path style=" stroke:none;fill-rule:nonzero;fill:rgb(68.235294%,18.823529%,36.078431%);fill-opacity:1;" d="M 254.804688 331.058594 L 307.09375 331.058594 L 307.09375 85.75 L 254.804688 85.75 Z M 254.804688 331.058594 "/>
<path style=" stroke:none;fill-rule:nonzero;fill:rgb(84.705882%,29.803922%,24.313725%);fill-opacity:1;" d="M 312.898438 331.058594 L 365.1875 331.058594 L 365.1875 173.777344 L 312.898438 173.777344 Z M 312.898438 331.058594 "/>
<path style=" stroke:none;fill-rule:nonzero;fill:rgb(95.294118%,46.666667%,10.196078%);fill-opacity:1;" d="M 370.996094 331.058594 L 423.285156 331.058594 L 423.285156 127.820313 L 370.996094 127.820313 Z M 370.996094 331.058594 "/>
<path style=" stroke:none;fill-rule:nonzero;fill:rgb(0%,0%,1.568627%);fill-opacity:1;" d="M 613.371094 178.628906 L 613.371094 44.492188 L 608.726563 44.574219 L 604.085938 44.816406 L 599.457031 45.214844 L 594.847656 45.777344 L 590.257813 46.5 L 585.695313 47.378906 L 581.167969 48.414063 L 576.679688 49.609375 L 572.234375 50.957031 L 567.835938 52.457031 L 563.496094 54.109375 L 559.214844 55.910156 L 554.996094 57.859375 L 550.851563 59.953125 L 546.777344 62.191406 L 542.785156 64.566406 L 538.878906 67.078125 L 535.0625 69.722656 L 531.335938 72.5 L 527.710938 75.40625 L 524.1875 78.433594 L 520.773438 81.582031 L 523.964844 84.929688 L 527.160156 88.273438 L 533.542969 94.96875 L 536.738281 98.3125 L 539.929688 101.660156 L 543.125 105.007813 L 546.316406 108.355469 L 549.507813 111.699219 L 552.703125 115.046875 L 555.894531 118.394531 L 559.089844 121.738281 L 565.472656 128.433594 L 568.667969 131.777344 L 571.859375 135.125 L 575.054688 138.472656 L 578.246094 141.820313 L 581.441406 145.164063 L 587.824219 151.859375 L 591.019531 155.203125 L 594.210938 158.550781 L 597.40625 161.898438 L 600.597656 165.242188 L 603.789063 168.589844 L 606.984375 171.9375 L 610.175781 175.285156 Z M 613.371094 178.628906 "/>
<path style=" stroke:none;fill-rule:nonzero;fill:rgb(11.764706%,4.705882%,26.666667%);fill-opacity:1;" d="M 613.371094 178.628906 L 610.175781 175.285156 L 606.984375 171.9375 L 603.789063 168.589844 L 600.597656 165.242188 L 597.40625 161.898438 L 594.210938 158.550781 L 591.019531 155.203125 L 587.824219 151.859375 L 581.441406 145.164063 L 578.246094 141.820313 L 575.054688 138.472656 L 571.859375 135.125 L 568.667969 131.777344 L 565.472656 128.433594 L 559.089844 121.738281 L 555.894531 118.394531 L 552.703125 115.046875 L 549.507813 111.699219 L 546.316406 108.355469 L 543.125 105.007813 L 539.929688 101.660156 L 536.738281 98.3125 L 533.542969 94.96875 L 527.160156 88.273438 L 523.964844 84.929688 L 520.773438 81.582031 L 517.542969 84.769531 L 514.417969 88.066406 L 511.410156 91.46875 L 508.519531 94.96875 L 505.75 98.566406 L 503.101563 102.253906 L 500.578125 106.027344 L 498.1875 109.886719 L 495.925781 113.824219 L 493.800781 117.835938 L 491.8125 121.917969 L 489.960938 126.0625 L 488.253906 130.269531 L 486.6875 134.53125 L 485.269531 138.84375 L 483.996094 143.199219 L 482.871094 147.597656 L 481.894531 152.03125 L 481.070313 156.496094 L 480.398438 160.988281 L 479.878906 165.496094 L 479.507813 170.023438 L 479.292969 174.558594 L 488.542969 174.839844 L 493.164063 174.980469 L 497.789063 175.121094 L 502.410156 175.257813 L 507.035156 175.398438 L 511.65625 175.539063 L 516.28125 175.679688 L 520.902344 175.820313 L 530.152344 176.101563 L 534.773438 176.242188 L 539.398438 176.382813 L 544.019531 176.523438 L 548.644531 176.664063 L 553.265625 176.804688 L 562.515625 177.085938 L 567.136719 177.226563 L 571.761719 177.367188 L 576.382813 177.507813 L 581.007813 177.648438 L 585.628906 177.789063 L 590.253906 177.929688 L 594.875 178.070313 L 599.5 178.207031 L 604.125 178.347656 L 608.746094 178.488281 Z M 613.371094 178.628906 "/>
<path style=" stroke:none;fill-rule:nonzero;fill:rgb(31.372549%,5.490196%,42.352941%);fill-opacity:1;" d="M 613.371094 178.628906 L 608.746094 178.488281 L 604.125 178.347656 L 599.5 178.207031 L 594.875 178.070313 L 590.253906 177.929688 L 585.628906 177.789063 L 581.007813 177.648438 L 576.382813 177.507813 L 571.761719 177.367188 L 567.136719 177.226563 L 562.515625 177.085938 L 553.265625 176.804688 L 548.644531 176.664063 L 544.019531 176.523438 L 539.398438 176.382813 L 534.773438 176.242188 L 530.152344 176.101563 L 520.902344 175.820313 L 516.28125 175.679688 L 511.65625 175.539063 L 507.035156 175.398438 L 502.410156 175.257813 L 497.789063 175.121094 L 493.164063 174.980469 L 488.542969 174.839844 L 479.292969 174.558594 L 479.234375 179.164063 L 479.332031 183.769531 L 479.585938 188.367188 L 480 192.957031 L 480.570313 197.527344 L 481.296875 202.074219 L 482.179688 206.597656 L 483.21875 211.085938 L 484.410156 215.535156 L 485.753906 219.941406 L 487.246094 224.296875 L 488.886719 228.601563 L 490.675781 232.84375 L 492.613281 237.027344 L 494.6875 241.136719 L 496.902344 245.175781 L 499.257813 249.136719 L 501.746094 253.011719 L 504.367188 256.800781 L 507.113281 260.496094 L 509.988281 264.097656 L 512.984375 267.597656 L 516.097656 270.992188 L 519.324219 274.277344 L 522.664063 277.449219 L 525.792969 274.042969 L 528.921875 270.632813 L 532.046875 267.226563 L 535.175781 263.820313 L 538.304688 260.410156 L 541.429688 257.003906 L 544.558594 253.597656 L 547.6875 250.1875 L 550.816406 246.78125 L 553.941406 243.375 L 557.070313 239.964844 L 560.199219 236.558594 L 563.324219 233.152344 L 566.453125 229.742188 L 572.710938 222.929688 L 575.835938 219.519531 L 582.09375 212.707031 L 585.21875 209.296875 L 591.476563 202.484375 L 594.601563 199.074219 L 600.859375 192.261719 L 603.988281 188.851563 L 607.113281 185.445313 L 610.242188 182.039063 Z M 613.371094 178.628906 "/>
<path style=" stroke:none;fill-rule:nonzero;fill:rgb(49.803922%,11.764706%,42.352941%);fill-opacity:1;" d="M 613.371094 178.628906 L 610.242188 182.039063 L 607.113281 185.445313 L 603.988281 188.851563 L 600.859375 192.261719 L 594.601563 199.074219 L 591.476563 202.484375 L 585.21875 209.296875 L 582.09375 212.707031 L 575.835938 219.519531 L 572.710938 222.929688 L 566.453125 229.742188 L 563.324219 233.152344 L 560.199219 236.558594 L 557.070313 239.964844 L 553.941406 243.375 L 550.816406 246.78125 L 547.6875 250.1875 L 544.558594 253.597656 L 541.429688 257.003906 L 538.304688 260.410156 L 535.175781 263.820313 L 532.046875 267.226563 L 528.921875 270.632813 L 525.792969 274.042969 L 522.664063 277.449219 L 526.097656 280.496094 L 529.632813 283.421875 L 533.269531 286.222656 L 536.996094 288.902344 L 540.8125 291.449219 L 544.714844 293.867188 L 548.699219 296.148438 L 552.757813 298.289063 L 556.886719 300.292969 L 561.082031 302.15625 L 565.335938 303.871094 L 569.648438 305.441406 L 574.015625 306.863281 L 578.421875 308.136719 L 582.875 309.253906 L 587.359375 310.222656 L 591.878906 311.035156 L 596.421875 311.691406 L 600.980469 312.195313 L 605.558594 312.539063 L 610.144531 312.726563 L 614.734375 312.761719 L 619.320313 312.636719 L 623.902344 312.351563 L 628.472656 311.914063 L 633.023438 311.320313 L 637.550781 310.570313 L 642.050781 309.664063 L 646.515625 308.605469 L 650.941406 307.398438 L 655.324219 306.035156 L 659.660156 304.527344 L 663.941406 302.871094 L 668.160156 301.066406 L 672.316406 299.121094 L 676.40625 297.035156 L 680.417969 294.808594 L 684.355469 292.445313 L 681.90625 288.519531 L 679.457031 284.597656 L 677.011719 280.671875 L 674.5625 276.746094 L 672.117188 272.824219 L 667.21875 264.972656 L 664.773438 261.046875 L 662.324219 257.125 L 659.875 253.199219 L 657.429688 249.273438 L 654.980469 245.351563 L 652.535156 241.425781 L 647.636719 233.574219 L 645.191406 229.652344 L 640.292969 221.800781 L 637.847656 217.875 L 635.398438 213.953125 L 632.953125 210.027344 L 630.503906 206.101563 L 628.054688 202.179688 L 625.609375 198.253906 L 623.160156 194.328125 L 620.714844 190.402344 L 618.265625 186.480469 L 615.816406 182.554688 Z M 613.371094 178.628906 "/>
<path style=" stroke:none;fill-rule:nonzero;fill:rgb(68.235294%,18.823529%,36.078431%);fill-opacity:1;" d="M 613.371094 178.628906 L 615.816406 182.554688 L 618.265625 186.480469 L 620.714844 190.402344 L 623.160156 194.328125 L 625.609375 198.253906 L 628.054688 202.179688 L 630.503906 206.101563 L 632.953125 210.027344 L 635.398438 213.953125 L 637.847656 217.875 L 640.292969 221.800781 L 645.191406 229.652344 L 647.636719 233.574219 L 652.535156 241.425781 L 654.980469 245.351563 L 657.429688 249.273438 L 659.875 253.199219 L 662.324219 257.125 L 664.773438 261.046875 L 667.21875 264.972656 L 672.117188 272.824219 L 674.5625 276.746094 L 677.011719 280.671875 L 679.457031 284.597656 L 681.90625 288.519531 L 684.355469 292.445313 L 688.28125 289.902344 L 692.113281 287.222656 L 695.851563 284.410156 L 699.492188 281.46875 L 703.023438 278.402344 L 706.449219 275.21875 L 709.761719 271.914063 L 712.953125 268.496094 L 716.027344 264.96875 L 718.976563 261.335938 L 721.792969 257.605469 L 724.480469 253.773438 L 727.035156 249.855469 L 729.449219 245.847656 L 731.722656 241.761719 L 733.851563 237.59375 L 735.835938 233.359375 L 737.667969 229.054688 L 739.351563 224.6875 L 740.878906 220.269531 L 742.253906 215.796875 L 743.472656 211.28125 L 744.53125 206.722656 L 745.433594 202.132813 L 746.171875 197.515625 L 746.75 192.871094 L 747.164063 188.210938 L 747.417969 183.542969 L 747.507813 178.863281 L 747.433594 174.1875 L 742.808594 174.339844 L 738.1875 174.492188 L 733.566406 174.648438 L 728.941406 174.800781 L 724.320313 174.953125 L 719.695313 175.105469 L 715.074219 175.257813 L 710.449219 175.414063 L 705.828125 175.566406 L 701.203125 175.71875 L 696.582031 175.871094 L 691.957031 176.027344 L 682.714844 176.332031 L 678.089844 176.484375 L 673.46875 176.636719 L 668.84375 176.792969 L 664.222656 176.945313 L 659.597656 177.097656 L 654.976563 177.25 L 650.351563 177.40625 L 645.730469 177.558594 L 641.105469 177.710938 L 631.863281 178.015625 L 627.238281 178.171875 L 622.617188 178.324219 L 617.992188 178.476563 Z M 613.371094 178.628906 "/>
<path style=" stroke:none;fill-rule:nonzero;fill:rgb(84.705882%,29.803922%,24.313725%);fill-opacity:1;" d="M 613.371094 178.628906 L 617.992188 178.476563 L 622.617188 178.324219 L 627.238281 178.171875 L 631.863281 178.015625 L 641.105469 177.710938 L 645.730469 177.558594 L 650.351563 177.40625 L 654.976563 177.25 L 659.597656 177.097656 L 664.222656 176.945313 L 668.84375 176.792969 L 673.46875 176.636719 L 678.089844 176.484375 L 682.714844 176.332031 L 691.957031 176.027344 L 696.582031 175.871094 L 701.203125 175.71875 L 705.828125 175.566406 L 710.449219 175.414063 L 715.074219 175.257813 L 719.695313 175.105469 L 724.320313 174.953125 L 728.941406 174.800781 L 733.566406 174.648438 L 738.1875 174.492188 L 742.808594 174.339844 L 747.433594 174.1875 L 747.191406 169.457031 L 746.785156 164.738281 L 746.210938 160.039063 L 745.472656 155.359375 L 744.570313 150.710938 L 743.503906 146.097656 L 742.273438 141.523438 L 740.882813 136.996094 L 739.332031 132.523438 L 737.628906 128.105469 L 735.765625 123.75 L 733.753906 119.464844 L 731.589844 115.25 L 729.277344 111.117188 L 726.824219 107.066406 L 724.226563 103.109375 L 721.492188 99.242188 L 718.621094 95.476563 L 715.621094 91.8125 L 712.09375 94.804688 L 708.570313 97.796875 L 705.042969 100.792969 L 701.515625 103.785156 L 697.992188 106.78125 L 690.9375 112.765625 L 687.414063 115.761719 L 683.886719 118.753906 L 680.363281 121.75 L 673.308594 127.734375 L 669.785156 130.730469 L 666.257813 133.722656 L 662.730469 136.71875 L 659.207031 139.710938 L 655.679688 142.703125 L 652.15625 145.699219 L 648.628906 148.691406 L 645.101563 151.6875 L 641.578125 154.679688 L 638.050781 157.675781 L 634.523438 160.667969 L 631 163.660156 L 627.472656 166.65625 L 623.949219 169.648438 L 620.421875 172.644531 L 616.894531 175.636719 Z M 613.371094 178.628906 "/>
<path style=" stroke:none;fill-rule:nonzero;fill:rgb(95.294118%,46.666667%,10.196078%);fill-opacity:1;" d="M 613.371094 178.628906 L 616.894531 175.636719 L 620.421875 172.644531 L 623.949219 169.648438 L 627.472656 166.65625 L 631 163.660156 L 634.523438 160.667969 L 638.050781 157.675781 L 641.578125 154.679688 L 645.101563 151.6875 L 648.628906 148.691406 L 652.15625 145.699219 L 655.679688 142.703125 L 659.207031 139.710938 L 662.730469 136.71875 L 666.257813 133.722656 L 669.785156 130.730469 L 673.308594 127.734375 L 680.363281 121.75 L 683.886719 118.753906 L 687.414063 115.761719 L 690.9375 112.765625 L 697.992188 106.78125 L 701.515625 103.785156 L 705.042969 100.792969 L 708.570313 97.796875 L 712.09375 94.804688 L 715.621094 91.8125 L 712.550781 88.320313 L 709.359375 84.933594 L 706.054688 81.664063 L 702.636719 78.507813 L 699.113281 75.472656 L 695.484375 72.5625 L 691.757813 69.78125 L 687.9375 67.128906 L 684.027344 64.609375 L 680.03125 62.230469 L 675.957031 59.988281 L 671.804688 57.890625 L 667.585938 55.9375 L 663.300781 54.132813 L 658.953125 52.476563 L 654.550781 50.972656 L 650.101563 49.621094 L 645.609375 48.425781 L 641.074219 47.386719 L 636.507813 46.503906 L 631.914063 45.78125 L 627.296875 45.21875 L 622.664063 44.816406 L 618.019531 44.574219 L 613.371094 44.492188 Z M 613.371094 178.628906 "/>
</g>
</svg>
